<svg width="36" height="36" viewBox="0 0 36 36" fill="none" xmlns="http://www.w3.org/2000/svg">
<g filter="url(#filter0_d_9_83)">
<circle cx="18" cy="18" r="13.9999" fill="#EE4248"/>
<circle cx="18" cy="18" r="13.4999" stroke="black"/>
</g>
<path d="M21.4471 21.4471C22.3614 20.5329 22.875 19.2929 22.875 18C22.875 17.9229 22.8728 17.8465 22.8686 17.7708H23.3333V23.0998C23.3333 23.1616 23.3088 23.221 23.2651 23.2648C23.2215 23.3084 23.1625 23.3331 23.1008 23.3333C23.1006 23.3333 23.1005 23.3333 23.1003 23.3333L12.9002 23.3333C12.7709 23.3333 12.6667 23.2291 12.6667 23.0998V17.7708H13.1314C13.1272 17.8465 13.125 17.9229 13.125 18C13.125 19.2929 13.6386 20.5329 14.5529 21.4471C15.4671 22.3614 16.7071 22.875 18 22.875C19.2929 22.875 20.5329 22.3614 21.4471 21.4471ZM18.9249 20.2324C18.6317 20.354 18.3173 20.4166 17.9999 20.4167C17.3587 20.4168 16.7438 20.1623 16.2903 19.7091C15.8369 19.2558 15.582 18.641 15.5819 17.9999C15.5817 17.3587 15.8363 16.7438 16.2895 16.2903C16.7427 15.8369 17.3575 15.582 17.9987 15.5819C18.3161 15.5818 18.6305 15.6442 18.9238 15.7657C19.2171 15.8871 19.4837 16.0651 19.7082 16.2895C19.9327 16.5139 20.1109 16.7804 20.2324 17.0736C20.354 17.3669 20.4166 17.6812 20.4167 17.9987C20.4167 18.3161 20.3543 18.6305 20.2329 18.9238C20.1115 19.2171 19.9335 19.4837 19.7091 19.7082C19.4846 19.9327 19.2182 20.1109 18.9249 20.2324ZM23.1875 12.8125V14.4375H21.561V12.8125H23.1875ZM8.45406 8.45406C10.9858 5.92232 14.4196 4.5 18 4.5C19.7728 4.5 21.5283 4.84919 23.1662 5.52763C24.8041 6.20606 26.2924 7.20047 27.5459 8.45406C28.7995 9.70765 29.7939 11.1959 30.4724 12.8338C31.1508 14.4717 31.5 16.2272 31.5 18C31.5 19.7728 31.1508 21.5283 30.4724 23.1662C29.7939 24.8041 28.7995 26.2924 27.5459 27.5459C26.2924 28.7995 24.8041 29.7939 23.1662 30.4724C21.5283 31.1508 19.7728 31.5 18 31.5C14.4196 31.5 10.9858 30.0777 8.45406 27.5459C5.92232 25.0142 4.5 21.5804 4.5 18C4.5 14.4196 5.92232 10.9858 8.45406 8.45406ZM23.6715 25.7917C24.8386 25.7917 25.7917 24.8386 25.7917 23.6715V12.3285C25.7917 11.1614 24.8386 10.2083 23.6715 10.2083H12.3285C11.1614 10.2083 10.2083 11.1614 10.2083 12.3285V23.6715C10.2083 24.8386 11.1614 25.7917 12.3285 25.7917H23.6715Z" fill="white" stroke="black"/>
<defs>
<filter id="filter0_d_9_83" x="0" y="0" width="36" height="35.9999" filterUnits="userSpaceOnUse" color-interpolation-filters="sRGB">
<feFlood flood-opacity="0" result="BackgroundImageFix"/>
<feColorMatrix in="SourceAlpha" type="matrix" values="0 0 0 0 0 0 0 0 0 0 0 0 0 0 0 0 0 0 127 0" result="hardAlpha"/>
<feOffset/>
<feGaussianBlur stdDeviation="2"/>
<feColorMatrix type="matrix" values="0 0 0 0 0.0658854 0 0 0 0 0.0730469 0 0 0 0 0.1375 0 0 0 0.2 0"/>
<feBlend mode="normal" in2="BackgroundImageFix" result="effect1_dropShadow_9_83"/>
<feBlend mode="normal" in="SourceGraphic" in2="effect1_dropShadow_9_83" result="shape"/>
</filter>
</defs>
</svg>
